<?xml version="1.0" standalone="no"?>
<!DOCTYPE svg PUBLIC "-//W3C//DTD SVG 20010904//EN"
 "http://www.w3.org/TR/2001/REC-SVG-20010904/DTD/svg10.dtd">
<svg version="1.0" xmlns="http://www.w3.org/2000/svg"
 width="468.000000pt" height="468.000000pt" viewBox="0 0 468.000000 468.000000"
 preserveAspectRatio="xMidYMid meet">
<metadata>
Created by potrace 1.11, written by Peter Selinger 2001-2013
</metadata>
<g transform="translate(0.000000,468.000000) scale(0.100000,-0.100000)"
fill="#000000" stroke="none">
<path d="M0 2741 l0 -1939 57 -49 c32 -27 92 -75 133 -108 41 -33 109 -89 150
-125 42 -36 96 -81 120 -100 24 -19 63 -51 85 -70 23 -19 86 -71 140 -115 54
-44 117 -96 139 -115 23 -19 64 -54 93 -78 l52 -42 1855 0 1856 0 0 1928 c0
1825 -1 1928 -17 1938 -10 6 -54 42 -99 80 -44 38 -111 94 -149 124 -37 30
-101 82 -140 115 -40 33 -103 85 -140 115 -38 30 -107 87 -154 127 -47 40
-135 113 -196 162 l-110 91 -1837 0 -1838 0 0 -1939z m2070 754 c274 -48 490
-207 569 -420 88 -235 -4 -592 -212 -821 -101 -111 -284 -231 -485 -317 l-123
-52 360 -3 c199 -1 361 -6 361 -10 0 -4 -11 -49 -24 -99 l-24 -93 22 0 c36 0
359 30 392 36 l32 6 126 504 c69 277 126 508 126 514 0 6 -77 10 -215 10 -118
0 -215 2 -215 5 0 3 30 124 66 269 l66 263 181 6 c107 4 209 13 247 22 96 23
236 94 304 153 l59 52 242 0 242 0 -89 -307 c-49 -170 -154 -569 -234 -888
-80 -319 -147 -587 -150 -596 -7 -24 17 -28 216 -40 96 -6 176 -12 178 -13 1
-2 -26 -116 -60 -255 l-63 -251 -1831 0 -1832 0 69 273 68 272 47 40 c164 141
403 285 779 470 160 79 318 162 351 183 80 52 162 135 196 198 41 76 80 221
76 285 -3 49 -6 55 -33 68 -58 29 -245 9 -298 -32 -12 -8 -19 -41 -26 -112
-13 -125 -34 -196 -78 -262 -91 -138 -244 -211 -421 -200 -139 8 -224 64 -281
187 -23 49 -26 67 -25 160 0 89 5 116 27 174 90 230 306 434 579 545 230 94
485 120 738 76z"/>
<path d="M1655 3370 c-151 -24 -340 -96 -462 -177 -80 -53 -198 -166 -246
-237 -119 -175 -117 -379 4 -444 39 -21 54 -23 129 -20 221 11 319 140 320
420 0 62 2 68 33 94 72 61 202 104 318 104 193 0 291 -86 276 -246 -16 -173
-94 -351 -198 -453 -99 -99 -175 -145 -500 -305 -349 -172 -561 -296 -716
-420 l-51 -41 -41 -162 c-23 -90 -41 -165 -41 -168 0 -3 400 -5 890 -5 l889 0
10 38 c37 140 91 364 91 377 0 13 -66 15 -602 16 l-603 1 115 55 c63 30 216
97 340 148 410 170 498 214 628 318 160 127 264 318 294 536 21 162 -18 279
-129 390 -129 127 -281 180 -538 186 -82 2 -177 0 -210 -5z"/>
<path d="M3686 3341 c-27 -22 -83 -56 -125 -76 -156 -78 -271 -105 -441 -105
l-119 0 -10 -37 c-5 -21 -21 -82 -34 -135 l-25 -98 219 0 c120 0 219 -2 219
-5 0 -23 -296 -1180 -310 -1212 -33 -74 -86 -93 -330 -114 -69 -6 -126 -11
-127 -12 -1 -1 -15 -55 -31 -120 l-30 -117 658 0 658 0 11 33 c11 36 51 192
51 201 0 3 -21 6 -47 6 -73 0 -271 36 -298 54 -21 14 -25 25 -25 62 0 53 294
1233 378 1517 l59 197 -126 -1 -126 0 -49 -38z"/>
</g>
</svg>
